<svg width="142" height="38" viewBox="0 0 142 38" fill="none" xmlns="http://www.w3.org/2000/svg">
<path d="M16.6189 0.236749L16.1962 0L15.2196 0.570734L9.88005 3.65693L8.37923 4.50246L0 9.36004V28.579L0.215611 28.7058L6.20198 32.1598L8.37923 33.4281V22.0726L9.2459 21.5611L9.88005 21.1975L10.6453 20.7536L15.2196 18.124L15.9171 17.7224L16.6189 17.2996L17.9253 16.5471L21.8908 14.2599V3.26798L16.6189 0.236749ZM16.6189 10.3113L15.2196 11.1188L9.88005 14.2049L8.37923 15.0505V12.2137L9.88005 11.3682L15.2196 8.26508L16.6189 7.4576V10.3113Z" fill="#FEBD69"/>
<path d="M15.1855 37.2031L15.6082 37.4356L16.6017 36.8649L21.9244 33.821L23.4252 32.9754L31.8044 28.0925V8.87777L31.5888 8.75517L25.6024 5.29271L23.4252 4.02441V15.3799L22.5796 15.8788L21.9455 16.2466L21.1803 16.6693L16.5848 19.3285L15.8873 19.7513L15.1855 20.1741L13.8791 20.9266L9.91357 23.218V34.2099L15.1855 37.2031ZM15.1855 27.1244L16.5848 26.3169L21.9244 23.2518L23.4252 22.4063V25.2388L21.9244 26.0844L16.5848 29.1705L15.1855 30.0161V27.1244Z" fill="#FEBD69"/>
<path d="M41.16 8.52H45.21V30H41.16V8.52ZM56.1089 30.48C55.1889 30.48 54.3089 30.35 53.4689 30.09C52.6289 29.83 51.8589 29.44 51.1589 28.92C50.4589 28.4 49.8489 27.77 49.3289 27.03C48.8089 26.27 48.3989 25.39 48.0989 24.39L51.9089 22.89C52.1889 23.97 52.6789 24.87 53.3789 25.59C54.0789 26.29 54.9989 26.64 56.1389 26.64C56.5589 26.64 56.9589 26.59 57.3389 26.49C57.7389 26.37 58.0889 26.21 58.3889 26.01C58.7089 25.79 58.9589 25.52 59.1389 25.2C59.3189 24.88 59.4089 24.51 59.4089 24.09C59.4089 23.69 59.3389 23.33 59.1989 23.01C59.0589 22.69 58.8189 22.39 58.4789 22.11C58.1589 21.83 57.7289 21.56 57.1889 21.3C56.6689 21.04 56.0189 20.77 55.2389 20.49L53.9189 20.01C53.3389 19.81 52.7489 19.54 52.1489 19.2C51.5689 18.86 51.0389 18.45 50.5589 17.97C50.0789 17.49 49.6789 16.93 49.3589 16.29C49.0589 15.63 48.9089 14.89 48.9089 14.07C48.9089 13.23 49.0689 12.45 49.3889 11.73C49.7289 10.99 50.1989 10.35 50.7989 9.81C51.4189 9.25 52.1489 8.82 52.9889 8.52C53.8489 8.2 54.7989 8.04 55.8389 8.04C56.9189 8.04 57.8489 8.19 58.6289 8.49C59.4289 8.77 60.0989 9.14 60.6389 9.6C61.1989 10.04 61.6489 10.53 61.9889 11.07C62.3289 11.61 62.5789 12.12 62.7389 12.6L59.1689 14.1C58.9689 13.5 58.5989 12.96 58.0589 12.48C57.5389 12 56.8189 11.76 55.8989 11.76C55.0189 11.76 54.2889 11.97 53.7089 12.39C53.1289 12.79 52.8389 13.32 52.8389 13.98C52.8389 14.62 53.1189 15.17 53.6789 15.63C54.2389 16.07 55.1289 16.5 56.3489 16.92L57.6989 17.37C58.5589 17.67 59.3389 18.02 60.0389 18.42C60.7589 18.8 61.3689 19.26 61.8689 19.8C62.3889 20.34 62.7789 20.96 63.0389 21.66C63.3189 22.34 63.4589 23.13 63.4589 24.03C63.4589 25.15 63.2289 26.12 62.7689 26.94C62.3289 27.74 61.7589 28.4 61.0589 28.92C60.3589 29.44 59.5689 29.83 58.6889 30.09C57.8089 30.35 56.9489 30.48 56.1089 30.48ZM71.0618 30V12.36H65.0618V8.52H81.1118V12.36H75.1118V30H71.0618ZM93.2538 30.48C91.6538 30.48 90.1638 30.19 88.7838 29.61C87.4238 29.03 86.2438 28.24 85.2438 27.24C84.2438 26.22 83.4538 25.03 82.8738 23.67C82.3138 22.29 82.0338 20.82 82.0338 19.26C82.0338 17.7 82.3138 16.24 82.8738 14.88C83.4538 13.5 84.2438 12.31 85.2438 11.31C86.2438 10.29 87.4238 9.49 88.7838 8.91C90.1638 8.33 91.6538 8.04 93.2538 8.04C94.8538 8.04 96.3338 8.33 97.6938 8.91C99.0738 9.49 100.264 10.29 101.264 11.31C102.264 12.31 103.044 13.5 103.604 14.88C104.184 16.24 104.474 17.7 104.474 19.26C104.474 20.82 104.184 22.29 103.604 23.67C103.044 25.03 102.264 26.22 101.264 27.24C100.264 28.24 99.0738 29.03 97.6938 29.61C96.3338 30.19 94.8538 30.48 93.2538 30.48ZM93.2538 26.64C94.2538 26.64 95.1838 26.46 96.0438 26.1C96.9238 25.74 97.6838 25.24 98.3238 24.6C98.9838 23.96 99.4938 23.19 99.8538 22.29C100.234 21.37 100.424 20.36 100.424 19.26C100.424 18.16 100.234 17.16 99.8538 16.26C99.4938 15.34 98.9838 14.56 98.3238 13.92C97.6838 13.28 96.9238 12.78 96.0438 12.42C95.1838 12.06 94.2538 11.88 93.2538 11.88C92.2538 11.88 91.3138 12.06 90.4338 12.42C89.5738 12.78 88.8138 13.28 88.1538 13.92C87.5138 14.56 87.0038 15.34 86.6238 16.26C86.2638 17.16 86.0838 18.16 86.0838 19.26C86.0838 20.36 86.2638 21.37 86.6238 22.29C87.0038 23.19 87.5138 23.96 88.1538 24.6C88.8138 25.24 89.5738 25.74 90.4338 26.1C91.3138 26.46 92.2538 26.64 93.2538 26.64ZM107.752 8.52H115.582C116.662 8.52 117.642 8.69 118.522 9.03C119.402 9.37 120.152 9.84 120.772 10.44C121.412 11.04 121.902 11.76 122.242 12.6C122.582 13.42 122.752 14.32 122.752 15.3C122.752 16.02 122.632 16.7 122.392 17.34C122.152 17.96 121.822 18.53 121.402 19.05C120.982 19.55 120.492 20 119.932 20.4C119.372 20.78 118.782 21.08 118.162 21.3L118.132 21.51L123.892 29.76V30H119.242L113.692 21.93H111.802V30H107.752V8.52ZM115.552 18.21C116.472 18.21 117.222 17.93 117.802 17.37C118.402 16.81 118.702 16.1 118.702 15.24C118.702 14.86 118.632 14.49 118.492 14.13C118.372 13.77 118.182 13.45 117.922 13.17C117.662 12.89 117.332 12.67 116.932 12.51C116.552 12.33 116.112 12.24 115.612 12.24H111.802V18.21H115.552ZM130.405 12.36V17.34H139.015V21.18H130.405V26.16H139.975V30H126.355V8.52H139.975V12.36H130.405Z" fill="white"/>
</svg>
